<svg fill="none" height="24" viewBox="0 0 24 24" width="24" xmlns="http://www.w3.org/2000/svg"><g fill="#000001"><path clip-rule="evenodd" d="m5.75 1c-1.51878 0-2.75 1.23122-2.75 2.75v14.5c0 1.5188 1.23122 2.75 2.75 2.75h.25c.41421 0 .75-.3358.75-.75s-.33579-.75-.75-.75h-.25c-.69036 0-1.25-.5596-1.25-1.25v-.9996c0-.6905.55986-1.2504 1.25-1.2504h13.75v3.25c0 .1381-.1119.25-.25.25h-3.25c-.4142 0-.75.3358-.75.75s.3358.75.75.75h3.25c.9665 0 1.75-.7835 1.75-1.75v-16.5c0-.9665-.7835-1.75-1.75-1.75zm13.75 13.5v-11.75c0-.13807-.1119-.25-.25-.25h-13.5c-.69036 0-1.25.55964-1.25 1.25v11.0499c.37502-.1917.79986-.2999 1.25-.2999z" fill-rule="evenodd"/><path d="m8.75 18c-.41421 0-.75.3358-.75.75v3.5c0 .2685.14358.5166.37645.6504.23287.1337.51949.1327.75145-.0026l1.8721-1.092 1.8721 1.092c.232.1353.5186.1363.7514.0026.2329-.1338.3765-.3819.3765-.6504v-3.5c0-.4142-.3358-.75-.75-.75z"/></g></svg>